<?xml version="1.0" encoding="utf-8"?>
<!-- Generator: Adobe Illustrator 28.0.0, SVG Export Plug-In . SVG Version: 6.00 Build 0)  -->
<svg version="1.1" xmlns="http://www.w3.org/2000/svg" xmlns:xlink="http://www.w3.org/1999/xlink" x="0px" y="0px"
	 viewBox="0 0 3384 1684" style="enable-background:new 0 0 3384 1684;" xml:space="preserve">
<style type="text/css">
	.st0{fill:url(#SVGID_1_);}
	.st1{opacity:0.5;clip-path:url(#SVGID_00000084524397539527516200000017463116717703430287_);}
	.st2{fill:none;stroke:#FFFFFF;stroke-width:3;stroke-miterlimit:10;}
	.st3{opacity:0.7;clip-path:url(#SVGID_00000084524397539527516200000017463116717703430287_);}
	.st4{clip-path:url(#SVGID_00000084524397539527516200000017463116717703430287_);}
</style>
<g id="Layer_1">
	<linearGradient id="SVGID_1_" gradientUnits="userSpaceOnUse" x1="1692" y1="1.8575" x2="1692" y2="1672.079">
		<stop  offset="5.291010e-03" style="stop-color:#F1F2F2"/>
		<stop  offset="0.1376" style="stop-color:#EAEBEB"/>
		<stop  offset="0.3321" style="stop-color:#D6D8D9"/>
		<stop  offset="0.5238" style="stop-color:#BCBEC0"/>
		<stop  offset="0.7069" style="stop-color:#D7D9DA"/>
		<stop  offset="0.8794" style="stop-color:#EAEBEC"/>
		<stop  offset="1" style="stop-color:#F1F2F2"/>
	</linearGradient>
	<rect class="st0" width="3384" height="1684"/>
</g>
<g id="Layer_5">
	<g>
		<defs>
			<rect id="SVGID_00000147912599796331770410000006777845508497359263_" width="3384" height="1684"/>
		</defs>
		<clipPath id="SVGID_00000039123073558390714220000005902639033440372651_">
			<use xlink:href="#SVGID_00000147912599796331770410000006777845508497359263_"  style="overflow:visible;"/>
		</clipPath>
		<g style="opacity:0.5;clip-path:url(#SVGID_00000039123073558390714220000005902639033440372651_);">
			<path class="st2" d="M-1995.76,211.26c160.41-115.89,350.78-221.53,598.21-261.25s562.37-0.53,770.59,132.29
				c213.64,136.27,271.77,335.5,473.29,478.62C66.89,717.58,414.31,772.4,708.85,758.13c294.53-14.27,557.3-84.65,835.48-128.76
				c278.18-44.11,594.85-59.71,887.46,29.45c347.32,105.83,576.04,329.75,837.07,516.09c218.76,156.16,481.83,295.79,778.63,371.51
				c296.8,75.73,630.07,79.79,854.12-19.54"/>
			<path class="st2" d="M-1915.73,228.16c157.34-103.7,343.14-198.25,583.43-228.8c240.92-30.62,547.54,15.9,755.3,143.21
				c183.86,113.32,255.74,266.89,399.82,390.03c21.89,18.61,45.4,36.58,71.3,53.48c119.59,78,275.57,124.82,439.26,147.45
				c131.17,17.94,267.99,19.56,396.69,10.82c29.62-2.01,59.02-4.43,88.26-7.16c122.08-11.34,239.7-27.76,355.06-45.61
				c126.26-19.57,250.28-40.94,377.38-56.66c105.16-12.87,215.73-21.55,328.66-22.2c178.42-0.85,363.7,18.46,540.79,71.45
				c56.55,16.92,110.09,36.5,161.2,57.98c213.74,90.4,381.52,216.67,552.02,336.43c35.54,25.02,71.24,49.7,107.58,73.64
				c134.46,88.1,285.96,169.79,454.38,235.04c96.66,37.22,198.9,69.33,305.73,94.35c85.72,20.03,174.61,34.91,262.93,43.98
				c213.45,21.93,423.43,9,577.93-51.42"/>
			<path class="st2" d="M-1835.7,245.05c154.27-91.51,335.54-174.95,568.65-196.34c234.47-21.51,533.03,31.8,740.01,154.14
				c182.47,107.85,257.43,250.02,399.16,360.61c21.49,16.77,44.51,32.84,69.8,47.79c116.74,69.03,267.1,107.06,424.55,122.53
				c126.24,12.01,258.42,7.93,384.84-3.21c29.08-2.55,58.06-5.36,87-8.27c120.52-12.01,237.1-25.43,350.37-39.43
				c123.93-15.4,244.86-31.66,368.56-42.4c102.43-8.63,209.9-13.17,319.95-10.4c174.03,4.75,356.44,28.03,531.49,79.45
				c55.93,16.42,109.09,34.84,159.85,54.78c211.76,83.18,376,194.93,540.83,300.39c34.34,22.08,68.74,43.9,103.86,64.83
				c129.64,77.26,275.74,148.06,440.53,204.47c94.6,32.38,195.52,60.34,301.05,82.79c84.76,17.95,172.77,31.7,260.16,40.75
				c210.49,21.79,417.07,14.43,567.45-36.09"/>
			<path class="st2" d="M-1755.68,261.94c151.2-79.32,327.99-151.63,553.88-163.88c228.06-12.37,518.33,47.99,724.71,165.06
				C-296.17,365.74-217.81,496.1-78.58,594.31c21.11,14.89,43.63,29.1,68.29,42.1c113.93,60.08,258.61,89.67,409.85,97.61
				c121.29,6.37,248.86-3.7,372.99-17.23c28.55-3.09,57.1-6.28,85.74-9.37c118.97-12.69,234.49-23.09,345.68-33.25
				c121.61-11.22,239.44-22.38,359.74-28.14c99.71-4.4,204.06-4.79,311.24,1.41c169.64,10.35,349.18,37.61,522.19,87.44
				c55.31,15.92,108.06,33.24,158.49,51.58c209.65,76.24,370.49,173.19,529.64,264.34c33.14,19.14,66.27,38.06,100.13,56.02
				c124.95,66.28,265.61,126.15,426.68,173.9c92.58,27.45,192.13,51.34,296.37,71.23c83.81,15.86,170.93,28.49,257.38,37.52
				c207.52,21.65,410.72,19.86,556.97-20.76"/>
			<path class="st2" d="M-1675.65,278.83c148.13-67.13,320.48-128.27,539.1-131.42c221.7-3.2,503.6,64.19,709.42,175.98
				c179.35,97.42,261.16,215.95,397.85,301.77c20.74,13.02,42.76,25.37,66.78,36.42c111.15,51.14,250.15,72.03,395.14,72.7
				c116.37,0.53,239.29-15.33,361.14-31.26c28.01-3.64,56.13-7.2,84.47-10.47c117.42-13.36,231.88-20.76,340.98-27.08
				c119.28-7.05,234.02-13.39,350.93-13.88c96.99-0.4,198.25,3.37,302.53,13.21c165.28,15.6,341.92,47.19,512.89,95.43
				c54.69,15.42,107.03,31.65,157.14,48.38c207.52,69.31,365.17,151.05,518.45,228.3c31.98,16.12,63.81,32.22,96.4,47.21
				c120.27,55.31,255.51,104.24,412.84,143.33c90.58,22.51,188.74,42.35,291.69,59.67c82.86,13.78,169.09,25.28,254.6,34.29
				c204.56,21.51,404.36,25.29,546.49-5.42"/>
			<path class="st2" d="M-1595.63,295.73c145.06-54.94,313.02-104.86,524.33-98.97c215.4,6.01,488.86,80.41,694.12,186.91
				c177.76,92.23,263.07,198.93,397.2,272.34c20.38,11.16,41.9,21.63,65.27,30.73c108.42,42.21,241.71,54.39,380.43,47.78
				c111.46-5.31,229.73-26.96,349.29-45.28c27.47-4.18,55.17-8.13,83.21-11.58c115.87-14.03,229.28-18.43,336.29-20.9
				c116.95-2.87,228.61-4.17,342.11,0.38c94.27,3.78,192.44,11.7,293.82,25.01c160.92,21.12,334.65,56.77,503.6,103.43
				c54.07,14.91,105.99,30.06,155.78,45.19c205.37,62.4,359.68,129.19,507.26,192.26c30.79,13.16,61.35,26.39,92.67,38.4
				c115.63,44.35,245.42,82.31,398.99,112.76c88.59,17.56,185.35,33.36,287.02,48.12c81.9,11.7,167.25,22.07,251.83,31.06
				c201.59,21.37,398,30.73,536.01,9.91"/>
			<path class="st2" d="M-1515.6,312.62c142-42.75,305.61-81.39,509.55-66.51c209.15,15.26,474.1,96.65,678.83,197.83
				C-151.07,531-62.2,625.86,69.32,686.86c20.02,9.29,41.06,17.89,63.76,25.04c105.74,33.28,233.28,36.73,365.72,22.86
				c106.57-11.16,220.16-38.59,337.43-59.31c26.94-4.73,54.21-9.05,81.95-12.68c114.32-14.71,226.67-16.1,331.6-14.72
				c114.63,1.31,223.22,5.06,333.29,14.64c91.57,7.98,186.62,20.04,285.11,36.82c156.55,26.66,327.39,66.35,494.3,111.42
				c53.45,14.41,104.94,28.47,154.43,41.99c203.21,55.51,354.16,107.33,496.07,156.22c29.59,10.19,58.91,20.56,88.94,29.59
				c111.03,33.39,235.35,60.38,385.15,82.19c86.61,12.61,181.96,24.37,282.34,36.56c80.95,9.61,165.41,18.86,249.05,27.83
				c198.63,21.23,391.64,36.16,525.53,25.24"/>
			<path class="st2" d="M-1435.57,329.51c138.93-30.56,298.24-57.86,494.77-34.05c202.94,24.59,459.32,112.91,663.53,208.75
				c174.53,81.91,267.01,164.9,395.88,213.5c19.67,7.42,40.22,14.15,62.25,19.35c103.13,24.33,224.86,19.06,351.02-2.06
				c101.68-17.02,210.6-50.22,325.58-73.33c26.4-5.27,53.25-9.97,80.68-13.78c112.77-15.38,224.07-13.77,326.9-8.55
				c112.3,5.48,217.82,14.29,324.47,28.9c88.86,12.17,180.81,28.39,276.4,48.62c152.19,32.21,320.13,75.93,485,119.41
				c52.83,13.91,103.9,26.89,153.07,38.79c201.02,48.65,348.62,85.47,484.89,120.18c28.39,7.23,56.48,14.73,85.21,20.78
				c106.47,22.44,225.3,38.43,371.3,51.63c84.64,7.65,178.58,15.38,277.66,25c80,7.53,163.57,15.65,246.27,24.6
				c195.66,21.09,385.29,41.59,515.05,40.57"/>
			<path class="st2" d="M-1355.55,346.41c135.86-18.37,290.9-34.25,480-1.6c196.77,33.98,444.52,129.2,648.24,219.68
				c172.89,76.79,269.06,147.86,395.23,184.08c19.33,5.55,39.4,10.4,60.74,13.66c100.58,15.35,216.46,1.37,336.31-26.97
				c96.81-22.9,201.03-61.85,313.73-87.36c25.86-5.82,52.28-10.9,79.42-14.89c111.22-16.05,221.46-11.44,322.21-2.37
				c109.97,9.66,212.43,23.54,315.66,43.16c86.17,16.38,175,36.75,267.69,60.42c147.83,37.77,312.87,85.51,475.7,127.4
				c52.21,13.41,102.84,25.32,151.72,35.59c198.82,41.81,343.05,63.61,473.7,84.14c27.18,4.27,54.06,8.89,81.48,11.97
				c101.97,11.47,215.27,16.45,357.46,21.06c82.68,2.68,175.19,6.39,272.98,13.44c79.05,5.45,161.73,12.44,243.5,21.37
				c192.7,20.95,378.93,47.02,504.57,55.91"/>
			<path class="st2" d="M-1275.52,363.3c132.79-6.17,283.59-10.55,465.22,30.86c190.62,43.47,429.7,145.51,632.95,230.6
				C-6.12,696.45,93.8,755.55,217.22,779.42c18.99,3.67,38.59,6.64,59.24,7.97c98.09,6.32,208.06-16.34,321.6-51.89
				c91.94-28.79,191.47-73.48,301.88-101.38c25.33-6.36,51.32-11.82,78.16-15.99c109.67-16.73,218.86-9.11,317.52,3.8
				c107.65,13.83,207.05,32.8,306.84,57.42c83.47,20.6,169.19,45.11,258.98,72.23c143.48,43.34,305.61,95.09,466.4,135.4
				c51.59,12.91,101.79,23.75,150.36,32.4c196.61,35,337.44,41.77,462.51,48.1c25.96,1.31,51.67,3.96,77.76,3.16
				c97.47-2.99,205.25-5.55,343.61-9.51c80.74-2.31,171.8-2.61,268.3,1.89c78.09,3.36,159.89,9.23,240.72,18.13
				c189.73,20.81,372.57,52.45,494.09,71.24"/>
			<path class="st2" d="M-1195.49,380.19c129.72,6.02,276.29,13.24,450.44,63.32c184.5,53.05,414.86,161.85,617.65,241.52
				C42.16,751.65,145.89,798.7,266.52,810.27c18.66,1.79,37.86,4.04,57.73,2.28c95.33-8.45,199.67-34.07,306.89-76.81
				c87.07-34.7,181.9-85.1,290.03-115.41c24.79-6.91,50.36-12.74,76.89-17.09c108.11-17.4,216.25-6.78,312.82,9.98
				c105.32,18.01,201.66,42.07,298.02,71.68c80.77,24.82,163.38,53.48,250.27,84.03c139.12,48.92,298.35,104.67,457.1,143.39
				c50.97,12.41,100.73,22.19,149,29.2c194.39,28.23,331.81,19.97,451.32,12.06c24.74-1.64,49.27-2.83,74.03-5.65
				c93.12-10.61,195.25-27.59,329.77-40.08c78.79-7.32,168.41-11.6,263.62-9.67c77.14,1.28,158.05,6.02,237.94,14.9
				c186.77,20.67,366.22,57.88,483.61,86.57"/>
			<path class="st2" d="M-1115.47,397.08c126.65,18.21,268.98,37.15,435.67,95.78c178.37,62.74,400,178.23,602.36,252.45
				c167.87,61.57,275.55,100.53,393.26,95.82c18.32-0.73,37-0.94,56.22-3.41c93.26-11.99,191.27-51.84,292.19-101.73
				c82.2-40.64,172.34-96.73,278.17-129.43c24.25-7.45,49.4-13.67,75.63-18.2c106.56-18.07,213.64-4.44,308.13,16.16
				c102.99,22.19,196.27,51.35,289.2,85.94c78.08,29.06,157.57,61.86,241.56,95.84c134.76,54.52,291.09,114.24,447.81,151.38
				c50.35,11.91,99.67,20.64,147.65,26c192.16,21.48,326.15-1.79,440.13-23.98c23.51-4.58,46.88-8.71,70.3-14.46
				c88.75-21.77,185.25-49.66,315.92-70.65c76.86-12.35,165.02-20.59,258.94-21.23c76.19-0.8,156.21,2.81,235.17,11.67
				c183.8,20.53,359.86,63.31,473.13,101.91"/>
			<path class="st2" d="M-1035.44,413.98c123.58,30.4,261.65,61.16,420.89,128.23c172.22,72.54,385.13,194.64,587.06,263.37
				c166.16,56.56,277.65,79.21,392.6,66.39c18.02-2.01,36.21-4.76,54.71-9.1c90.86-21.31,182.87-69.63,277.48-126.65
				c77.33-46.6,162.77-108.36,266.32-143.46c23.71-7.99,48.43-14.59,74.37-19.3c105.01-18.75,211.04-2.11,303.44,22.33
				c100.66,26.36,190.88,60.65,280.39,100.2c75.38,33.31,151.76,70.24,232.85,107.64c130.4,60.13,283.83,123.82,438.51,159.38
				c49.72,11.4,98.61,19.1,146.29,22.81c189.92,14.78,320.5-23.49,428.95-60.02c22.29-7.51,44.5-14.63,66.57-23.27
				c84.37-33.02,175.25-71.77,302.07-101.22c74.92-17.4,161.64-29.58,254.27-32.79c75.23-2.89,154.37-0.39,232.39,8.44
				c180.84,20.39,353.5,68.74,462.66,117.24"/>
			<path class="st2" d="M-955.41,430.87c120.52,42.59,254.28,85.28,406.12,160.69c166.02,82.46,370.24,211.09,571.77,274.29
				c164.45,51.57,279.82,61.86,391.95,36.97c17.69-3.93,35.41-8.6,53.2-14.79c88.43-30.74,174.45-87.45,262.77-151.56
				c72.44-52.58,153.2-119.99,254.47-157.49c23.18-8.54,47.47-15.51,73.1-20.4c103.46-19.42,208.43,0.22,298.74,28.51
				c98.34,30.54,185.49,69.96,271.57,114.46c72.67,37.57,145.94,78.64,224.14,119.44c126.03,65.76,276.57,133.4,429.21,167.37
				c49.1,10.9,97.55,17.56,144.94,19.61c187.68,8.1,314.87-45.14,417.76-96.06c21.07-10.43,42.1-20.57,62.84-32.08
				c79.94-44.36,165.24-93.92,288.23-131.79c72.98-22.47,158.25-38.57,249.59-44.34c74.28-4.97,152.54-3.6,229.61,5.21
				c177.87,20.25,347.14,74.17,452.18,132.57"/>
			<path class="st2" d="M-875.39,447.76c117.45,54.78,246.85,109.49,391.34,193.15C-324.3,733.39-128.7,868.5,72.43,926.13
				c162.73,46.63,281.95,44.43,391.29,7.55c17.36-5.86,34.6-12.47,51.69-20.47c85.93-40.26,166.01-105.3,248.07-176.48
				c67.54-58.59,143.64-131.62,242.62-171.51c22.64-9.08,46.51-16.44,71.84-21.51c101.91-20.09,205.83,2.55,294.05,34.68
				c96.01,34.71,180.08,79.28,262.75,128.72c69.96,41.84,140.12,87.05,215.43,131.25c121.65,71.39,269.31,142.98,419.91,175.36
				c48.48,10.4,96.5,15.23,143.58,16.41c185.39,4.65,309.28-66.75,406.57-132.1c19.85-13.34,39.68-26.52,59.11-40.89
				c75.44-55.77,155.21-116.11,274.38-162.36c71.02-27.57,154.86-47.56,244.91-55.9c73.33-7.05,150.7-6.81,226.84,1.98
				c174.91,20.11,340.79,79.61,441.7,147.9"/>
			<path class="st2" d="M-795.36,464.66c114.38,66.97,239.33,133.8,376.56,225.6C-265.42,792.87-78.36,934.39,122.38,986.4
				c161,41.72,284.02,26.95,390.64-21.87c17.02-7.8,33.77-16.34,50.18-26.16c83.34-49.86,157.53-123.16,233.36-201.4
				c62.6-64.6,134.07-143.25,230.76-185.54c22.1-9.63,45.55-17.36,70.58-22.61c100.36-20.77,203.22,4.88,289.36,40.86
				c93.68,38.89,174.67,88.61,253.93,142.98c67.24,46.12,134.29,95.46,206.72,143.05c117.26,77.05,262.05,152.56,410.61,183.36
				c47.86,9.9,95.43,14.52,142.23,13.21c183.21-5.13,303.74-88.34,395.38-168.14c18.65-16.24,37.24-32.48,55.38-49.7
				c70.84-67.21,145.16-138.32,260.54-192.93c69.05-32.68,151.47-56.56,240.23-67.46c72.38-9.14,148.86-10.02,224.06-1.25
				c171.94,19.97,334.43,85.04,431.22,163.24"/>
			<path class="st2" d="M-715.33,481.55c111.31,79.16,231.71,158.17,361.79,258.06c146.9,112.82,325.53,260.72,525.89,307.07
				c159.27,36.84,286.03,9.44,389.98-51.29c16.67-9.74,32.92-20.23,48.67-31.85c80.64-59.51,149.03-141.03,218.65-226.32
				c57.65-70.62,124.51-154.88,218.91-199.56c21.57-10.17,44.59-18.28,69.31-23.71c98.81-21.44,200.61,7.21,284.67,47.04
				c91.36,43.07,169.24,97.95,245.11,157.24c64.51,50.4,128.45,103.88,198.01,154.85c112.86,82.71,254.79,162.14,401.31,191.35
				c47.24,9.4,94.37,13.02,140.87,10.02c180.99-11.69,298.25-109.92,384.19-204.19c17.46-19.15,34.78-38.44,51.66-58.51
				c66.16-78.65,135.07-160.57,246.69-223.5c67.06-37.81,148.08-65.55,235.55-79.01c71.42-11.22,147.02-13.23,221.28-4.48
				c168.98,19.83,328.07,90.47,420.74,178.57"/>
			<path class="st2" d="M-635.31,498.44c108.24,91.35,223.98,182.58,347.01,290.52c140.3,123.09,310.62,277.36,510.59,317.99
				c157.54,32.01,287.97-8.08,389.32-80.71c16.31-11.69,32.05-24.11,47.17-37.54c77.84-69.16,140.5-158.9,203.94-251.23
				c52.66-76.65,114.94-166.51,207.06-213.59c21.03-10.72,43.62-19.21,68.05-24.82c97.26-22.11,198.01,9.54,279.97,53.21
				c89.03,47.24,163.79,107.3,236.3,171.5c61.76,54.69,122.6,112.3,189.3,166.66c108.44,88.38,247.53,171.72,392.02,199.34
				c46.62,8.9,93.32,11.53,139.52,6.82c178.78-18.21,292.8-131.52,373-240.23c16.27-22.06,32.3-44.4,47.93-67.32
				c61.41-90.06,124.95-182.83,232.85-254.07c65.05-42.95,144.7-74.54,230.87-90.57c70.47-13.3,145.18-16.44,218.51-7.72
				c166.01,19.69,321.72,95.9,410.26,193.9"/>
			<path class="st2" d="M-555.28,515.33c105.17,103.54,216.14,207.02,332.23,322.98c133.55,133.4,295.71,294.06,495.3,328.91
				c155.81,27.21,289.84-25.6,388.67-110.14c15.94-13.63,31.17-28,45.66-43.23c74.95-78.8,131.93-176.76,189.24-276.15
				c47.66-82.66,105.38-178.14,195.21-227.61c20.49-11.26,42.66-20.13,66.79-25.92c95.71-22.79,195.4,11.87,275.28,59.39
				c86.7,51.42,158.34,116.64,227.48,185.76c59.01,58.99,116.75,120.73,180.6,178.46c104.01,94.05,240.27,181.3,382.72,207.34
				c46,8.39,92.27,10.04,138.16,3.62c176.59-24.7,287.38-153.14,361.82-276.27c15.09-24.97,29.81-50.34,44.2-76.13
				c56.61-101.43,114.79-205.1,219-284.64c63.02-48.1,141.31-83.53,226.19-102.13c69.52-15.39,143.34-19.65,215.73-10.95
				c163.04,19.55,315.36,101.33,399.78,209.23"/>
			<path class="st2" d="M-475.26,532.23c102.11,115.73,208.18,231.45,317.46,355.43c126.67,143.71,280.81,310.81,480,339.84
				c154.08,22.45,291.66-43.09,388.01-139.56c15.56-15.58,30.27-31.87,44.15-48.92c71.99-88.41,123.34-194.6,174.53-301.07
				c42.63-88.67,95.81-189.77,183.36-241.64c19.96-11.81,41.7-21.06,65.52-27.02c94.15-23.46,192.8,14.21,270.59,65.57
				c84.37,55.59,152.73,126.12,218.66,200.02c56.12,63.39,110.78,129.26,171.89,190.27c99.39,99.9,233.01,190.88,373.42,215.33
				c45.38,7.89,91.22,8.57,136.81,0.43c174.42-31.15,282.24-174.66,350.63-312.31c13.97-27.86,27.31-56.27,40.47-84.93
				c51.79-112.77,104.6-227.37,205.15-315.21c60.96-53.25,137.92-92.52,221.51-113.69c68.56-17.47,141.5-22.86,212.95-14.18
				c160.08,19.41,309,106.76,389.3,224.57"/>
			<path class="st2" d="M-395.23,549.12c99.04,127.92,200.11,255.86,302.68,387.89c119.66,154.02,265.92,327.62,464.71,350.76
				c152.37,17.74,293.44-60.56,387.36-168.98c15.17-17.52,29.35-35.74,42.64-54.61c68.97-97.97,114.59-212.49,159.82-325.99
				c37.46-94.71,86.25-201.4,171.5-255.66c19.42-12.35,40.74-21.98,64.26-28.13c92.6-24.13,190.19,16.54,265.89,71.74
				c82.05,59.77,147.31,135.4,209.84,214.28c53.4,67.62,104.95,137.63,163.18,202.07c95,105.5,225.74,200.46,364.12,223.32
				c44.76,7.39,90.21,7.18,135.45-2.77c172.35-37.25,276.72-196.4,339.44-348.35c12.77-30.8,24.74-62.21,36.74-93.74
				c46.71-124.14,94.2-249.8,191.31-345.78c58.78-58.5,134.53-101.51,216.84-125.24c67.61-19.55,139.66-26.07,210.18-17.41
				c157.11,19.27,302.64,112.19,378.82,239.9"/>
			<path class="st2" d="M-315.2,566.01c95.97,140.12,191.94,280.23,287.91,420.35c112.52,164.28,251.04,344.48,449.41,361.68
				c150.67,13.06,295.19-77.99,386.7-198.4c91.51-120.41,139.73-267.3,186.24-411.2c39.93-123.54,97.38-264.78,222.65-298.91
				c91.05-24.81,187.59,18.87,261.2,77.92c148.03,118.74,235.54,295.36,355.49,442.41c119.95,147.06,305.18,272.82,488.92,225.35
				c170.18-43.97,271.21-218.14,328.25-384.39c57.04-166.25,93.35-347.85,210.48-478.9c103.51-115.82,265.41-176.57,419.56-157.44
				c154.15,19.13,296.29,117.62,368.34,255.23"/>
		</g>
		<g style="opacity:0.7;clip-path:url(#SVGID_00000039123073558390714220000005902639033440372651_);">
			<path class="st2" d="M5545.69,972.74c-168.3,88.72-370.02,173.02-638.26,218.35c-268.24,45.33-615.26,43.96-851.34-27.31
				c-242.22-73.13-318.21-199.75-547.59-278.33c-251.05-86-634.59-95.15-955.95-62.91c-321.37,32.23-604.49,98.94-906.1,149.54
				c-301.62,50.6-647.12,85.43-972.81,49.44C287.05,978.8,22.88,849.15-274.31,746.75c-249.06-85.82-545.57-157.32-875.01-184.15
				c-329.45-26.82-694.33-3.65-933.29,79.1"/>
			<path class="st2" d="M5457.08,967.83c-165.7,80.46-363.23,156.7-624.11,195.84c-261.81,38.44-600.06,32-835.29-35.69
				c-238.57-69.5-317.69-188.36-541.08-257.43c-135.01-41.74-306.13-58.85-484.25-60.68c-147.28-1.36-300.46,9.1-445.38,24.53
				c-151.3,15.82-294.73,37.05-434.59,59.95c-152.77,24.63-301.51,51.1-454.99,73.37c-84.78,12.16-172.98,23.06-263.43,31.63
				c-223.83,21.68-462.31,28.7-691.28,4.6c-53.66-5.67-104.99-12.86-154.4-21.22c-244.82-41.21-438.88-111.88-634.7-177.96
				c-45.1-15.22-90.39-29.99-136.48-44.2c-124.81-38.38-261.98-73.11-411.74-100.82c-138.14-26.11-286.45-46.25-442.44-57.49
				c-84.69-6.13-171.8-9.27-258.46-9.29c-245.12-0.06-486.34,24.64-658.6,78.8"/>
			<path class="st2" d="M5368.47,962.92c-163.1,72.2-356.34,141.19-609.96,173.33c-255.29,32.35-585.07,20.78-819.23-44.06
				c-235.14-65.12-317.28-176.93-534.56-236.53c-132.65-36.39-297.63-46.57-468.95-43.39c-141.71,2.93-289.94,17.74-434.36,34
				c-148.64,16.2-290.26,35.64-427.39,55.4c-150.39,21.67-295.83,43.52-445.67,61.7c-82.93,9.78-169.13,18.17-257.65,24.86
				c-218.47,16.52-453.18,20.69-678.95-1.84c-52.72-5.32-103.23-11.92-151.89-19.47C298.1,929.89,108.89,868.41-79.87,811.79
				c-43.51-13.05-87.17-25.43-131.59-37.39c-120.32-32.21-252.66-60.41-399.24-83.8c-134.8-21.51-280.53-39.09-434.1-48.68
				c-83.27-5.25-168.97-7.93-254.21-7.95c-241.35-0.08-478.6,20.68-646.61,67.89"/>
			<path class="st2" d="M5279.86,958c-160.5,63.93-349.53,125.25-595.81,150.82c-248.84,25.84-569.95,9.16-803.18-52.44
				c-231.57-61.16-316.99-165.42-528.04-215.63c-130.38-31.01-289.14-34.29-453.65-26.1c-136.15,7.22-279.38,26.75-423.34,43.48
				c-145.93,16.96-285.83,34.05-420.19,50.86c-148.05,18.52-290.11,36.31-436.35,50.03c-81.07,7.61-165.26,13.38-251.87,18.1
				c-213.07,11.62-444.04,12.68-666.62-8.29c-51.77-4.96-101.47-10.98-149.38-17.71c-238.68-32.87-423.09-85.16-604.75-132.32
				c-41.93-10.89-83.95-20.88-126.7-30.58c-115.83-26.04-243.26-48-386.75-66.78c-131.39-17.2-274.62-31.93-425.76-39.86
				c-81.86-4.37-166.14-6.59-249.97-6.62c-237.59-0.11-470.86,16.73-634.62,56.98"/>
			<path class="st2" d="M5191.25,953.09c-157.9,55.67-342.74,109.28-581.67,128.31c-242.42,19.31-554.81-2.49-787.12-60.81
				c-227.99-57.24-316.84-153.82-521.53-194.73c-128.19-25.62-280.68-22.36-438.34-8.81c-130.61,11.22-268.85,35.49-412.33,52.95
				c-143.26,17.43-281.41,32.44-412.99,46.31c-145.72,15.36-284.43,28.84-427.03,38.36c-79.24,5.29-161.39,8.6-246.1,11.34
				c-207.67,6.73-434.91,4.67-654.29-14.74c-50.83-4.6-99.7-10.03-146.88-15.95c-235.62-28.7-415.26-71.8-589.78-109.5
				c-40.36-8.72-80.74-16.32-121.81-23.77c-111.33-19.87-233.85-35.61-374.25-49.77c-127.96-12.9-268.71-24.78-417.43-31.04
				c-80.44-3.49-163.31-5.24-245.72-5.29c-233.83-0.14-463.11,12.78-622.64,46.07"/>
			<path class="st2" d="M5102.65,948.18c-155.3,47.41-335.96,93.29-567.52,105.8c-236.02,12.75-539.66-14.17-771.07-69.19
				c-224.39-53.35-316.82-142.11-515.01-173.83c-126.1-20.18-272.21-10.15-423.04,8.48c-125.07,15.45-258.31,44.22-401.31,62.42
				c-140.58,17.9-277,30.82-405.8,41.76c-143.4,12.18-278.75,21.36-417.7,26.7c-77.4,2.97-157.51,3.82-240.32,4.58
				c-202.26,1.85-425.77-3.34-641.96-21.18c-49.89-4.24-97.93-9.19-144.37-14.2c-232.49-25.05-407.47-58.43-574.81-86.68
				c-38.8-6.55-77.52-11.76-116.93-16.96c-106.84-13.7-224.41-23.24-361.75-32.75c-124.52-8.62-262.79-17.62-409.09-22.23
				c-79.02-2.61-160.47-3.9-241.48-3.96c-230.06-0.17-455.37,8.82-610.65,35.16"/>
			<path class="st2" d="M5014.04,943.26c-152.7,39.15-329.21,77.27-553.37,83.29c-229.64,6.17-524.49-25.88-755.02-77.57
				c-220.77-49.5-316.94-130.26-508.5-152.93c-124.1-14.69-263.74,2.06-407.74,25.77c-119.53,19.68-247.78,52.94-390.29,71.9
				c-137.91,18.35-272.59,29.19-398.6,37.21c-141.08,8.98-273.08,13.87-408.38,15.03c-75.57,0.65-153.63-0.95-234.55-2.19
				c-196.83-3-416.64-11.35-629.63-27.63c-48.95-3.88-96.17-8.27-141.87-12.44c-229.43-20.96-399.73-45.04-559.84-63.86
				c-37.25-4.38-74.29-7.29-112.04-10.15c-102.33-7.76-214.96-10.89-349.26-15.73c-121.06-4.36-256.88-10.46-400.76-13.41
				c-77.6-1.73-157.64-2.56-237.23-2.63c-226.3-0.2-447.63,4.87-598.67,24.25"/>
			<path class="st2" d="M4925.43,938.35c-150.1,30.89-322.48,61.22-539.22,60.78c-223.29-0.45-509.31-37.62-738.96-85.94
				c-217.14-45.69-317.19-118.23-501.98-132.03c-122.2-9.12-255.28,14.28-392.44,43.06c-113.99,23.91-237.25,61.65-379.27,81.37
				c-135.24,18.78-268.19,27.53-391.4,32.66c-138.77,5.77-267.42,6.36-399.06,3.36c-73.74-1.68-149.74-5.71-228.77-8.95
				c-191.4-7.83-407.5-19.35-617.29-34.07c-48.01-3.52-94.41-7.34-139.36-10.68c-226.36-16.85-392.06-31.63-544.86-41.04
				c-35.72-2.2-71.08-2.74-107.15-3.34c-97.85-1.62-205.49,1.43-336.76,1.29c-117.59-0.13-250.96-3.3-392.42-4.59
				c-76.19-0.85-154.81-1.22-232.98-1.3c-222.54-0.23-439.88,0.91-586.68,13.33"/>
			<path class="st2" d="M4836.82,933.44c-147.5,22.62-315.77,45.12-525.07,38.28c-216.95-7.1-494.12-49.4-722.91-94.32
				c-213.49-41.91-317.55-106.01-495.47-111.12c-120.39-3.46-246.83,26.51-377.13,60.34c-108.46,28.16-226.71,70.34-368.25,90.85
				c-132.57,19.2-263.79,25.86-384.2,28.11c-136.47,2.54-261.77-1.15-389.73-8.31c-71.91-4.02-145.86-10.47-223-15.71
				c-185.96-12.64-398.37-27.36-604.96-40.52c-47.07-3.16-92.65-6.4-136.85-8.93c-223.3-12.74-384.44-18.16-529.89-18.21
				c-34.2-0.01-67.87,1.81-102.26,3.47c-93.38,4.52-196.01,13.73-324.26,18.31c-114.1,4.07-245.05,3.86-384.08,4.22
				c-74.77,0.03-151.97,0.12-228.74,0.03c-218.77-0.26-432.14-3.04-574.69,2.42"/>
			<path class="st2" d="M4748.21,928.53c-144.9,14.36-309.07,28.98-510.92,15.77c-210.63-13.79-478.91-61.22-706.85-102.69
				c-209.84-38.18-318.02-93.56-488.95-90.22c-118.65,2.31-238.38,38.76-361.83,77.63c-102.94,32.42-216.18,79.03-357.23,100.32
				c-129.9,19.61-259.4,24.18-377,23.56c-134.17-0.7-256.11-8.68-380.41-19.98c-70.09-6.37-141.97-15.21-217.22-22.47
				c-180.52-17.42-389.23-35.37-592.63-46.97c-46.13-2.8-90.89-5.47-134.35-7.17c-220.25-8.61-376.88-4.64-514.92,4.61
				c-32.69,2.19-64.66,6.36-97.37,10.28c-88.91,10.66-186.51,25.99-311.76,35.32c-110.6,8.25-239.13,11.02-375.75,13.04
				c-73.35,0.91-149.14,1.46-224.49,1.36c-215.01-0.29-424.4-6.99-562.71-8.49"/>
			<path class="st2" d="M4659.6,923.61c-142.3,6.1-302.39,12.79-496.77-6.74c-204.32-20.54-463.69-73.08-690.8-111.07
				c-206.17-34.49-318.57-80.86-482.43-69.32c-116.98,8.23-229.94,51.01-346.53,94.92c-97.41,36.69-205.65,87.69-346.22,109.8
				c-127.23,20.01-255.01,22.47-369.81,19.01c-131.88-3.97-250.46-16.23-371.09-31.65c-68.27-8.73-138.07-19.94-211.45-29.24
				c-175.07-22.18-380.1-43.38-580.3-53.41c-45.19-2.44-89.13-4.53-131.84-5.41c-217.19-4.47-369.37,8.98-499.94,27.43
				c-31.2,4.41-61.45,10.91-92.48,17.09c-84.45,16.82-177,38.21-299.27,52.34c-107.09,12.38-233.22,18.18-367.41,21.86
				c-71.93,1.79-146.31,2.8-220.25,2.69c-211.25-0.32-416.66-10.95-550.72-19.4"/>
			<path class="st2" d="M4571,918.7c-139.7-2.16-295.72-3.45-482.63-29.25c-198.03-27.33-448.46-84.99-674.74-119.45
				c-202.49-30.84-319.17-67.88-475.92-48.42c-115.35,14.32-221.49,63.29-331.23,112.21c-91.89,40.97-195.13,96.35-335.2,119.27
				c-124.56,20.39-250.63,20.74-362.61,14.46c-129.58-7.27-244.82-23.8-361.77-43.32c-66.45-11.09-134.18-24.66-205.67-36
				c-169.62-26.9-370.98-50.99-567.97-59.86c-44.25-1.99-87.37-3.59-129.34-3.66c-214.14-0.32-361.9,22.7-484.97,50.25
				c-29.72,6.65-58.25,15.47-87.6,23.9c-79.99,22.99-167.49,50.39-286.77,69.36c-103.58,16.48-227.31,25.34-359.08,30.67
				c-70.52,2.67-143.48,4.14-216,4.02c-207.48-0.35-408.91-14.9-538.74-30.31"/>
			<path class="st2" d="M4482.39,913.79c-137.11-10.42-289.05-19.76-468.48-51.76c-191.74-34.2-433.22-96.94-658.69-127.82
				c-198.81-27.23-319.78-54.62-469.4-27.52c-113.73,20.59-213.04,75.58-315.93,129.5c-86.37,45.26-184.6,104.98-324.18,128.74
				c-121.9,20.75-246.24,18.99-355.41,9.91c-127.29-10.59-239.17-31.38-352.44-54.99c-64.63-13.47-130.29-29.37-199.9-42.76
				c-164.17-31.59-361.84-59-555.64-66.3c-43.31-1.63-85.61-2.65-126.83-1.9c-211.09,3.85-354.45,36.55-470,73.07
				c-28.24,8.93-55.04,20.03-82.71,30.71c-75.53,29.16-157.97,62.52-274.27,86.38c-100.07,20.53-221.39,32.5-350.74,39.49
				c-69.1,3.56-140.64,5.48-211.75,5.35c-203.72-0.38-401.17-18.86-526.75-41.22"/>
			<path class="st2" d="M4393.78,908.88c-134.51-18.69-282.37-36.13-454.33-74.27c-185.44-41.13-417.98-108.94-642.64-136.2
				c-195.12-23.67-320.36-41.06-462.89-6.62c-112.09,27.08-204.59,87.89-300.62,146.79c-80.84,49.58-174.08,113.6-313.16,138.22
				c-119.24,21.1-241.86,17.22-348.21,5.36c-125-13.93-233.52-38.99-343.12-66.65c-62.81-15.86-126.4-34.06-194.12-49.52
				c-158.72-36.25-352.71-67.01-543.31-72.75c-42.37-1.28-83.85-1.71-124.32-0.14c-208.03,8.03-346.97,50.54-455.03,95.89
				c-26.76,11.23-51.83,24.59-77.82,37.52c-71.07,35.35-148.47,74.6-261.77,103.39c-96.57,24.54-215.48,39.66-342.4,48.31
				c-67.68,4.44-137.81,6.82-207.51,6.68c-199.95-0.41-393.43-22.81-514.76-52.14"/>
			<path class="st2" d="M4305.17,903.96c-131.91-26.95-275.68-52.58-440.18-96.78c-179.14-48.13-402.73-121-626.58-144.57
				c-191.42-20.16-320.85-27.23-456.37,14.28c-110.38,33.8-196.13,100.23-285.32,164.08c-75.3,53.91-163.56,122.21-302.14,147.69
				c-116.58,21.44-237.47,15.42-341.01,0.82c-122.71-17.31-227.86-46.61-333.8-78.32c-60.99-18.26-122.51-38.73-188.34-56.29
				c-153.29-40.87-343.57-75.03-530.98-79.2c-41.43-0.92-82.09-0.76-121.82,1.61c-204.98,12.23-339.44,64.66-440.05,118.71
				c-25.26,13.57-48.62,29.16-72.93,44.33c-66.59,41.55-138.98,86.63-249.28,120.41c-93.08,28.51-209.56,46.81-334.07,57.12
				c-66.26,5.32-134.98,8.16-203.26,8.01c-196.19-0.43-385.68-26.76-502.78-63.05"/>
			<path class="st2" d="M4216.56,899.05c-129.31-35.21-268.97-69.1-426.03-119.29c-172.8-55.22-387.48-133.12-610.53-152.95
				c-187.72-16.69-321.2-13.13-449.85,35.18c-108.54,40.76-187.65,112.57-270.02,181.37c-69.75,58.25-153.04,130.79-291.12,157.17
				c-113.92,21.76-233.07,13.59-333.82-3.73c-120.4-20.71-222.19-54.26-324.48-89.99c-59.15-20.67-118.63-43.39-182.57-63.05
				c-147.86-45.45-334.42-83.42-518.65-85.64c-40.49-0.64-80.33,0.2-119.31,3.37c-201.92,16.45-331.81,78.9-425.08,141.53
				c-23.74,15.94-45.41,33.74-68.04,51.14c-62.11,47.76-129.51,98.61-236.78,137.43c-89.61,32.43-203.65,53.97-325.73,65.94
				c-64.85,6.2-132.15,9.5-199.02,9.34c-192.43-0.46-377.94-30.72-490.79-73.96"/>
			<path class="st2" d="M4127.96,894.14c-126.71-43.47-262.22-85.69-411.88-141.8c-166.42-62.39-372.23-145.3-594.47-161.33
				c-184.03-13.27-321.37,1.19-443.34,56.08c-106.54,47.95-179.15,124.94-254.72,198.65c-64.18,62.61-142.53,139.36-280.11,166.64
				c-111.27,22.07-228.67,11.75-326.62-8.28c-118.09-24.15-216.51-61.92-315.15-101.66c-57.32-23.09-114.75-48.04-176.79-69.81
				c-142.46-50-325.29-91.43-506.32-92.09c-39.55-0.29-78.57,1.15-116.81,5.13c-198.86,20.68-324.05,93.22-410.11,164.36
				c-22.18,18.34-42.19,38.31-63.15,57.95c-57.62,53.98-120.08,110.53-224.28,154.45c-86.16,36.31-197.74,61.13-317.39,74.76
				c-63.43,7.08-129.31,10.84-194.77,10.67c-188.66-0.49-370.2-34.67-478.81-84.87"/>
			<path class="st2" d="M4039.35,889.23c-124.11-51.73-255.42-102.35-397.73-164.31c-159.99-69.65-356.98-157.54-578.42-169.7
				c-180.33-9.9-321.3,15.68-436.82,76.98c-104.33,55.35-170.62,137.31-239.41,215.94c-58.59,66.97-132.03,147.9-269.09,176.12
				c-108.62,22.36-224.25,9.87-319.42-12.83c-115.76-27.62-210.82-69.61-305.83-113.33c-55.47-25.53-110.89-52.66-171.02-76.57
				c-137.08-54.51-316.15-99.44-493.99-98.53c-38.61,0.07-76.81,2.11-114.3,6.88c-195.8,24.93-316.13,107.58-395.14,187.18
				c-20.59,20.74-38.97,42.89-58.27,64.76c-53.11,60.2-110.69,122.41-211.79,171.47c-82.75,40.15-191.82,68.29-309.06,83.57
				c-62.01,7.96-126.48,12.18-190.52,12c-184.9-0.52-362.46-38.63-466.82-95.78"/>
			<path class="st2" d="M3950.74,884.31c-121.51-60-248.56-119.09-383.58-186.82c-153.48-76.99-341.73-169.86-562.36-178.08
				c-176.65-6.58-320.95,30.3-430.31,97.88c-101.85,62.94-162.07,149.69-224.11,233.23c-52.98,71.34-121.53,156.42-258.07,185.59
				c-105.98,22.64-219.82,7.97-312.22-17.38c-113.42-31.12-205.11-77.31-296.51-125c-53.61-27.97-107.04-57.27-165.24-83.34
				c-131.73-58.99-307.02-107.45-481.66-104.98c-37.67,0.43-75.05,3.07-111.79,8.64c-192.73,29.21-308.07,121.94-380.16,210
				c-18.95,23.15-35.74,47.46-53.38,71.57c-48.59,66.42-101.35,134.24-199.29,188.48c-79.39,43.97-185.91,75.45-300.72,92.39
				c-60.6,8.84-123.65,13.52-186.28,13.33c-181.14-0.55-354.71-42.58-454.83-106.69"/>
			<path class="st2" d="M3862.13,879.4c-118.91-68.26-241.61-135.87-369.44-209.33c-146.88-84.4-326.5-182.25-546.31-186.45
				c-172.97-3.31-320.32,44.97-423.79,118.78c-99.09,70.68-153.49,162.06-208.81,250.52c-47.34,75.71-111.04,164.92-247.05,195.06
				c-103.34,22.9-215.38,6.05-305.02-21.93c-111.05-34.66-199.37-85.03-287.19-136.67c-51.74-30.43-103.21-61.87-159.47-90.1
				c-126.41-63.43-297.89-115.46-469.33-111.43c-36.73,0.79-73.27,4.1-109.29,10.4c-189.59,33.8-299.87,136.24-365.19,232.82
				c-17.28,25.55-32.47,52.06-48.49,78.38c-43.96,72.69-92.07,146.04-186.79,205.5c-76.07,47.76-179.99,82.61-292.39,101.21
				c-59.18,9.72-120.82,14.86-182.03,14.67c-177.37-0.58-346.97-46.53-442.85-117.61"/>
			<path class="st2" d="M3773.52,874.49c-116.31-76.52-234.57-152.7-355.29-231.84c-140.16-91.88-311.28-194.72-530.25-194.83
				c-169.31-0.09-319.37,59.64-417.27,139.68c-96.01,78.5-144.76,174.49-193.51,267.81c-41.57,80.12-100.6,173.2-236.03,204.54
				c-100.74,23.01-210.91,4.1-297.83-26.48c-108.66-38.22-193.51-92.91-277.86-148.33c-49.79-32.98-99.39-66.45-153.69-96.86
				c-121.14-67.85-288.75-123.47-457-117.87c-35.78,1.15-71.51,5.04-106.78,12.15c-186.53,37.97-291.56,150.47-350.22,255.64
				c-15.58,27.93-29.25,56.62-43.6,85.19c-39.47,78.86-82.86,157.81-174.29,222.52c-72.8,51.53-174.08,89.77-284.05,110.02
				c-57.76,10.6-117.98,16.21-177.79,16c-173.61-0.61-339.23-50.49-430.86-128.52"/>
			<path class="st2" d="M3684.91,869.58c-113.71-84.78-227.43-169.56-341.14-254.35c-133.32-99.4-296.09-207.27-514.2-203.21
				c-165.66,3.09-318.12,74.23-410.76,160.58c-92.63,86.35-136.26,186.77-178.2,285.1c-36.01,84.41-90.08,181.83-225.02,214.01
				c-98.08,23.39-206.41,2.13-290.63-31.03c-169.35-66.68-276.08-176.14-416.46-263.63s-350.87-155.9-548.94-110.41
				C576.11,708.79,476.4,831.26,424.33,945.11c-52.08,113.85-80.51,236.19-200.51,331.54c-106.05,84.26-279.41,136.8-449.26,136.17
				c-169.85-0.64-331.48-54.44-418.88-139.43"/>
		</g>
		<g style="clip-path:url(#SVGID_00000039123073558390714220000005902639033440372651_);">
			<path class="st2" d="M-1459.88,1064.46c123.99-69.81,274.21-137.48,478.84-178.99s473.73-51.64,661.93-7.45
				c193.1,45.33,261.24,134.83,444.78,184.53c200.88,54.4,498.86,48.75,745.62,15.05c246.76-33.7,461.37-91.21,691.48-137.61
				c230.11-46.41,495.4-82.76,750.49-67.07c302.79,18.63,517.02,104.3,754.87,169.13c199.32,54.33,434.38,96.74,691.72,105.66
				c257.34,8.92,538.5-19.6,717.69-87.34"/>
			<path class="st2" d="M-1390.9,1034.01c121.79-62.73,268.56-123.42,467.15-159.19c199.22-35.13,460.9-39.86,648.25,3.71
				c189.67,44.23,260.1,129.04,439.02,173.73c8.5,2.12,17.17,4.11,26,5.95c103.52,21.61,227.11,27.61,354.47,23.86
				c115.97-3.25,235.96-15.27,348.39-30.01c90.52-11.92,176.95-25.51,260.58-39.9c143.73-24.73,279.61-51.06,422.41-75.77
				c224.08-38.78,483.88-70.86,734.44-55.99c208.53,12.32,373.28,52.43,531.46,95.1c68.39,18.18,135.7,36.74,205.34,53.63
				c73.73,17.96,152.7,34.41,236.73,48.49c135.83,23.22,284.19,40.03,440.8,45.65c48.83,1.75,98.51,2.26,148.16,1.53
				c207.48-3.02,414.05-27.7,554.46-76.19"/>
			<path class="st2" d="M-1321.91,1003.56c119.59-55.65,262.8-110.09,455.46-139.4c193.71-29.48,448.07-28.08,634.57,14.88
				c186.24,43.13,259,123.21,433.25,162.93c8.35,1.9,16.87,3.64,25.53,5.21c102.44,18.53,222.24,20.57,345.5,13.8
				c112.11-5.85,228.82-20.35,341.09-34.45c89.96-11.39,176.13-22.88,258.67-34.51c142.67-20.1,275.36-39.11,415.83-59.23
				c217.95-31.22,472.35-58.95,718.39-44.91c205.52,11.63,366.55,46.67,519.71,82.95c66.27,15.7,131.42,31.13,199.03,45.38
				c71.53,15.21,148.39,28.88,230.85,41.27c132.69,19.93,278.58,35.63,432.48,41.35c47.93,1.78,96.69,2.48,145.38,2.09
				c203.72-1.52,405.91-21.76,542.16-64.07"/>
			<path class="st2" d="M-1252.92,973.11c117.39-48.57,257.13-96.37,443.77-119.61c188.29-23.45,435.23-16.3,620.89,26.04
				c182.81,42.03,257.93,117.35,427.49,152.13c8.21,1.68,16.57,3.17,25.06,4.47c101.39,15.43,217.36,13.29,336.52,3.75
				c108.23-8.67,221.69-25.42,333.79-38.89c89.4-10.87,175.32-20.24,256.76-29.12c141.65-15.44,271.04-27.19,409.25-42.68
				c211.74-23.74,460.83-47.04,702.34-33.83c202.5,10.93,359.91,40.62,507.96,70.8c64.2,13.08,127.14,25.53,192.72,37.13
				c69.33,12.47,144.05,23.5,224.97,34.05c129.5,16.88,272.97,31.23,424.17,37.05c47.03,1.8,94.86,2.69,142.6,2.66
				c199.95-0.01,397.76-15.81,529.86-51.96"/>
			<path class="st2" d="M-1183.94,942.66c115.19-41.49,251.48-82.64,432.08-99.82c182.89-17.4,422.4-4.52,607.21,37.2
				c179.38,40.93,256.9,111.44,421.72,141.33c8.07,1.46,16.27,2.7,24.58,3.72c100.36,12.31,212.48,6.18,327.55-6.31
				c104.36-11.33,214.55-30.5,326.49-43.33c88.85-10.35,174.53-17.58,254.85-23.72c140.64-10.76,266.66-15.3,402.67-26.13
				c205.45-16.36,449.31-35.13,686.29-22.75c199.48,10.24,353.3,34.57,496.21,58.65c62.13,10.47,122.86,19.93,186.41,28.88
				c67.12,9.73,139.71,18.12,219.08,26.83c126.3,13.85,267.36,26.83,415.86,32.75c46.14,1.83,93.04,2.9,139.82,3.22
				c196.19,1.5,389.62-9.87,517.56-39.84"/>
			<path class="st2" d="M-1114.95,912.2c112.99-34.41,245.85-68.88,420.39-80.02c177.52-11.33,409.57,7.25,593.52,48.37
				c175.95,39.84,255.89,105.5,415.96,130.53c7.92,1.24,15.97,2.23,24.11,2.98c99.35,9.16,207.59-0.93,318.57-16.37
				c100.48-13.98,207.41-35.58,319.19-47.77c88.29-9.82,173.75-14.9,252.94-18.33c139.65-6.05,262.22-3.47,396.09-9.59
				c199.07-9.1,437.79-23.23,670.25-11.67c196.47,9.55,346.71,28.5,484.45,46.5c60.07,7.85,118.6,14.17,180.09,20.63
				c64.94,6.83,135.35,12.76,213.2,19.61c123.09,10.82,261.75,22.43,407.54,28.45c45.24,1.86,91.21,3.12,137.05,3.78
				c192.42,3,381.48-3.92,505.26-27.73"/>
			<path class="st2" d="M-1045.96,881.75c110.79-27.32,240.24-55.1,408.7-60.23c172.17-5.25,396.74,19.03,579.84,59.53
				c172.53,38.74,254.93,99.5,410.19,119.73c7.78,1.01,15.67,1.75,23.63,2.24c98.37,5.98,202.71-8.03,309.6-26.43
				c96.6-16.63,200.28-40.65,311.89-52.21c87.73-9.3,172.98-14.07,251.03-12.94c138.68,2,258.15,17.73,389.51,6.96
				c191.99-15.74,426.27-11.32,654.2-0.59c193.45,8.85,340.15,22.41,472.7,34.35c58.03,5.23,114.32,8.54,173.78,12.39
				c62.73,4.06,131,7.4,207.32,12.38c119.87,7.82,256.13,18.04,399.23,24.15c44.34,1.88,89.39,3.33,134.27,4.35
				c188.66,4.51,373.34,2.02,492.97-15.61"/>
			<path class="st2" d="M-976.98,851.3c108.59-20.24,234.75-45.74,397.01-40.44c166.76,5.44,383.9,30.81,566.16,70.69
				c169.1,37.64,253.99,93.45,404.43,108.93c7.64,0.79,15.38,1.27,23.16,1.49c97.41,2.77,197.81-15.12,300.62-36.49
				c92.71-19.28,193.14-45.73,304.59-56.65c87.17-8.78,172.21-9.48,249.12-7.55c137.73,3.47,253.31,30.63,382.94,23.5
				c185.88-10.22,414.74,0.59,638.15,10.49c190.44,8.16,333.62,16.3,460.95,22.2c56,2.59,110.03,2.91,167.47,4.14
				c60.52,1.29,126.63,2.06,201.44,5.16c116.65,4.84,250.52,13.64,390.92,19.84c43.45,1.91,87.56,3.54,131.49,4.91
				c184.89,6.02,365.2,7.97,480.67-3.5"/>
			<path class="st2" d="M-907.99,820.85c106.39-13.16,229.1-27.44,385.32-20.65c161.55,7.02,371.07,42.59,552.48,81.86
				c165.67,36.54,253.09,87.33,398.66,98.13c7.51,0.56,15.1,1.17,22.69,0.75c96.32-5.26,192.92-22.2,291.64-46.55
				c88.82-21.91,186-50.8,297.29-61.09c86.61-8.25,171.45-6.74,247.21-2.16c136.78,8.28,248.55,31.61,376.36,40.05
				c179.51,11.86,403.22,12.5,622.1,21.57c187.42,7.46,327.18,14.21,449.2,10.05c53.94-1.84,105.74-2.72,161.16-4.11
				c58.31-1.47,122.26-3.27,195.56-2.06c113.41,1.88,244.91,9.24,382.6,15.54c42.55,1.94,85.73,3.76,128.71,5.48
				c181.13,7.52,357.06,13.91,468.37,8.62"/>
			<path class="st2" d="M-839,790.4c104.19-6.08,223.56-13.54,373.63-0.85c156.27,13.21,358.32,53.99,538.8,93.02
				c162.31,35.1,252.21,81.14,392.9,87.33c7.37,0.32,14.79,0.3,22.21,0.01c95.53-3.78,188.02-29.27,282.67-56.61
				c84.93-24.54,178.87-55.88,289.99-65.53c86.05-7.73,170.69-3.98,245.3,3.23c135.85,13.13,243.91,43.12,369.78,56.6
				c172.88,18.52,391.7,24.41,606.05,32.65c184.4,6.77,320.62,3.99,437.44-2.11c51.97-2.71,101.45-8.34,154.85-12.36
				c56.09-4.23,117.9-10.48,189.68-9.28c110.16,1.85,239.3,4.84,374.29,11.24c41.66,1.96,83.91,3.97,125.93,6.04
				c177.36,9.03,348.92,19.86,456.07,20.73"/>
			<path class="st2" d="M-770.01,759.94c101.99,1,218.04,0.4,361.94,18.94c151.01,19.46,345.49,65.75,525.12,104.18
				c158.88,33.99,251.54,83.61,387.13,76.53c7.23-0.38,14.5-0.19,21.74-0.73c94.61-7.13,183.12-36.33,273.69-66.67
				c81.04-27.15,171.73-60.96,282.69-69.97c85.49-7.21,169.94-1.19,243.39,8.63c134.91,18.03,239.23,54.51,363.2,73.14
				c166.22,24.98,380.18,36.31,590,43.73c181.39,6.08,314.16-2.23,425.69-14.26c49.97-5.39,97.16-13.95,148.54-20.61
				c53.88-6.98,113.51-13.89,183.8-16.5c106.92-3.97,233.69,0.44,365.98,6.94c40.76,1.99,82.08,4.19,123.16,6.61
				c173.6,10.53,340.77,25.8,443.77,32.85"/>
			<path class="st2" d="M-701.03,729.49c99.79,8.08,212.53,14.4,350.25,38.73c145.76,25.75,332.66,77.52,511.43,115.35
				c155.46,32.89,251.02,77.41,381.37,65.73c7.08-0.63,14.21-0.69,21.27-1.48c93.69-10.52,178.22-43.38,264.72-76.73
				c77.15-29.75,164.59-66.03,275.39-74.4c84.93-6.69,169.18,1.62,241.48,14.02c133.98,22.97,234.55,65.78,356.62,89.69
				c159.54,31.26,368.65,48.22,573.95,54.81c178.37,5.38,307.71-8.49,413.94-26.41c47.97-8.09,92.86-19.56,142.23-28.86
				c51.66-9.73,109.13-19.17,177.92-23.72c103.67-6.85,228.07-3.96,357.66,2.64c39.86,2.02,80.26,4.4,120.38,7.17
				c169.83,12.04,332.63,31.75,431.47,44.96"/>
			<path class="st2" d="M-632.04,699.04c97.59,15.16,207.02,28.46,338.57,58.52c140.52,32.11,319.83,89.3,497.75,126.51
				c152.02,31.8,249.71,62.09,375.6,54.93c6.97-0.4,13.92-1.19,20.79-2.22c92.76-13.97,173.32-50.41,255.74-86.79
				c73.26-32.34,157.46-71.11,268.09-78.84c84.37-6.16,168.42,4.46,239.57,19.41c133.03,27.95,229.87,76.9,350.04,106.24
				c152.89,37.33,357.13,60.13,557.9,65.89c175.35,4.69,301.27-14.82,402.18-38.56c45.99-10.82,88.57-25.16,135.92-37.1
				c49.44-12.47,104.75-24.44,172.04-30.94c100.41-9.7,222.46-8.36,349.35-1.66c38.97,2.04,78.43,4.61,117.6,7.73
				c166.07,13.55,324.49,37.69,419.17,57.07"/>
			<path class="st2" d="M-563.05,668.59c95.39,22.24,201.51,42.59,326.88,78.32c135.27,38.55,306.99,101.08,484.07,137.68
				c148.59,30.71,248.89,55.55,369.84,44.13c6.84-0.65,13.63-1.69,20.32-2.96c91.83-17.48,168.43-57.42,246.77-96.85
				c69.37-34.92,150.32-76.19,260.79-83.28c83.82-5.64,167.65,7.32,237.66,24.8c132.07,32.98,225.22,87.86,343.46,122.78
				c146.27,43.2,345.61,72.04,541.85,76.97c172.34,3.99,294.82-21.22,390.43-50.71c44-13.57,84.27-30.76,129.61-45.35
				c47.22-15.2,100.37-29.68,166.15-38.16c97.16-12.52,216.85-12.76,341.04-5.96c38.07,2.07,76.61,4.83,114.82,8.3
				c162.3,15.05,316.35,43.64,406.87,69.19"/>
			<path class="st2" d="M-494.07,638.14c93.19,29.32,195.98,56.8,315.19,98.11c130,45.05,294.16,112.87,470.39,148.84
				c145.16,29.63,248.06,48.91,364.07,33.33c6.71-0.9,13.33-2.2,19.85-3.71c90.88-21.05,163.54-64.42,237.79-106.91
				c65.5-37.48,143.19-81.26,253.49-87.72c83.26-5.12,166.88,10.2,235.75,30.19c131.1,38.06,220.64,98.67,336.88,139.33
				c139.73,48.88,334.09,83.95,525.8,88.05c169.32,3.3,288.36-27.68,378.68-62.86c42-16.36,79.98-36.35,123.3-53.6
				c45-17.92,95.99-34.9,160.27-45.38c93.91-15.3,211.24-17.16,332.72-10.27c37.17,2.1,74.78,5.04,112.04,8.86
				c158.54,16.56,308.21,49.59,394.57,81.3"/>
			<path class="st2" d="M-425.08,607.68c90.99,36.4,190.41,71.07,303.5,117.9c124.7,51.64,281.32,124.67,456.71,160
				c141.73,28.55,247.22,42.17,358.31,22.53c6.58-1.16,13.04-2.71,19.37-4.45c89.91-24.68,158.67-71.41,228.82-116.97
				c61.63-40.02,136.05-86.34,246.19-92.16c82.7-4.59,166.09,13.1,233.84,35.58c130.1,43.17,216.14,109.3,330.31,155.88
				c133.28,54.37,322.57,95.85,509.75,99.13c166.31,2.6,281.86-34.21,366.93-75.01c39.99-19.18,75.69-41.93,116.99-61.85
				c42.79-20.64,91.62-40.1,154.39-52.6c90.67-18.06,205.62-21.56,324.41-14.57c36.28,2.12,72.96,5.25,109.27,9.43
				c154.77,18.07,300.07,55.53,382.28,93.42"/>
			<path class="st2" d="M-356.09,577.23c88.79,43.48,184.8,85.41,291.81,137.69c119.35,58.31,268.41,136.81,443.03,171.17
				c138.24,27.74,246.33,35.33,352.54,11.73c6.44-1.43,12.74-3.23,18.9-5.19c88.9-28.38,153.81-78.38,219.84-127.03
				c57.77-42.56,128.91-91.41,238.89-96.6c82.14-4.07,165.29,16.03,231.93,40.98c129.08,48.32,211.76,119.77,323.73,172.42
				c126.97,59.71,311.04,107.76,493.7,110.21c163.29,1.91,275.32-40.81,355.17-87.16c37.95-22.03,71.41-47.51,110.68-70.1
				c40.58-23.35,87.25-45.27,148.51-59.82c87.45-20.77,200.01-25.96,316.1-18.87c35.38,2.15,71.13,5.47,106.49,9.99
				c151.01,19.57,291.93,61.48,369.98,105.53"/>
			<path class="st2" d="M-287.11,546.78c86.59,50.56,179.13,99.82,280.12,157.49c113.92,65.05,255.58,148.58,429.34,182.33
				c134.81,26.64,245.4,28.38,346.78,0.93c6.3-1.71,12.44-3.75,18.42-5.94c87.85-32.13,148.96-85.34,210.87-137.09
				c53.93-45.08,121.78-96.49,231.59-101.04c81.58-3.55,164.47,18.97,230.02,46.37c128.02,53.52,207.53,130.09,317.15,188.97
				c120.82,64.9,299.52,119.67,477.65,121.29c160.27,1.22,268.7-47.45,343.42-99.31c35.87-24.9,67.14-53.08,104.36-78.35
				c38.39-26.06,82.9-50.41,142.63-67.04c84.24-23.45,194.4-30.36,307.78-23.17c34.48,2.18,69.3,5.68,103.71,10.55
				c147.24,21.08,283.79,67.42,357.68,117.65"/>
			<path class="st2" d="M-218.12,516.33c84.39,57.64,173.38,114.28,268.43,177.28c108.41,71.86,242.75,160.36,415.66,193.49
				c131.38,25.54,244.39,21.34,341.01-9.87c6.16-1.99,12.13-4.27,17.95-6.68c86.76-35.93,144.14-92.29,201.89-147.15
				c50.1-47.6,114.64-101.57,224.29-105.48c81.02-3.02,163.63,21.92,228.11,51.76c126.93,58.74,203.48,140.25,310.57,205.52
				c114.85,69.99,288,131.58,461.6,132.38c157.26,0.52,262-54.12,331.67-111.46c33.76-27.79,62.87-58.64,98.05-86.59
				c36.2-28.76,78.57-55.53,136.75-74.26c81.05-26.09,188.79-34.76,299.47-27.47c33.59,2.2,67.48,5.89,100.93,11.12
				c143.48,22.59,275.64,73.37,345.38,129.76"/>
			<path class="st2" d="M-149.13,485.88c82.19,64.72,167.54,128.77,256.74,197.07c102.79,78.71,229.92,172.14,401.98,204.66
				c127.95,24.44,243.3,14.21,335.25-20.67c6.01-2.28,11.83-4.8,17.48-7.42c85.6-39.79,139.34-99.23,192.91-157.21
				c46.3-50.11,107.5-106.64,216.99-109.92c80.46-2.5,162.78,24.89,226.2,57.15c125.79,64,199.64,150.3,303.99,222.06
				c109.08,75.02,276.48,143.48,445.55,143.46c154.24-0.17,255.22-60.8,319.92-123.61c31.61-30.69,58.61-64.21,91.74-94.84
				c34.02-31.46,74.26-60.62,130.87-81.48c77.89-28.71,183.18-39.16,291.16-31.77c32.69,2.23,65.65,6.11,98.16,11.68
				c139.71,24.09,267.5,79.31,333.08,141.88"/>
			<path class="st2" d="M-80.15,455.42C-0.16,527.23,81.46,598.7,164.9,672.29c97.05,85.6,217.09,183.92,388.3,215.82
				c124.52,23.34,242.09,7.01,329.48-31.47c5.85-2.58,11.52-5.32,17-8.17c84.38-43.7,134.69-106.07,183.94-167.27
				c42.62-52.54,100.37-111.72,209.69-114.36c79.9-1.98,161.9,27.87,224.29,62.54c124.62,69.28,196.02,160.25,297.41,238.61
				c103.53,80.01,264.95,155.39,429.5,154.54c151.23-0.87,248.35-67.47,308.16-135.76c29.41-33.59,54.41-69.73,85.43-103.09
				c31.89-34.12,69.97-65.68,124.99-88.7c74.77-31.29,177.56-43.56,282.84-36.07c31.79,2.26,63.83,6.32,95.38,12.25
				c135.95,25.6,259.36,85.26,320.78,153.99"/>
			<path class="st2" d="M-11.16,424.97c77.79,78.89,155.57,157.77,233.36,236.66c91.2,92.49,204.25,195.69,374.62,226.98
				c129.39,23.77,257.15-3.54,340.25-51.18c83.1-47.64,129.82-113.11,174.96-177.33c38.75-55.13,93.23-116.8,202.39-118.8
				c79.34-1.46,161.01,30.85,222.38,67.94c123.41,74.58,192.63,170.14,290.83,255.16c98.21,85.02,253.43,167.3,413.45,165.62
				c148.21-1.56,241.4-74.1,296.41-147.91c55-73.81,92.68-157.44,198.23-207.26c93.28-44.03,234.95-54.67,367.13-27.57
				c132.18,27.1,251.22,91.2,308.48,166.11"/>
		</g>
	</g>
</g>
</svg>
